# xmcd
#
# Track frame offsets:
#	150
#	15735
#	47367
#	73383
#	94546
#	112741
#	141667
#	167424
#	202795
#	224350
#	250610
#	268042
#	299375
#	321047
#
# Disc length: 4651 seconds
#
# Revision: 1
# Processed by: cddbd v1.5.2PL0 Copyright (c) Steve Scherf et al.
# Submitted via: EasyCDDAExtractor 15.2.5.1
#
DISCID=c512290e
DTITLE=Various Artist - Sunshine House Vol.5
DYEAR=2005
DGENRE=House
TTITLE0=Stonebridge - Put 'em high (JJ Stockholm's Radio Edit)
TTITLE1=Major Boys feat. Kathy Brown - Voodoo Magic (DJ Antoine vs. Mad Mark V
TTITLE1=ocal Mix)
TTITLE2=Gadjo feat. Alexandra Prince - So many times (Original Extended)
TTITLE3=Imagination - So Good so Right 2005 (JL Mix)
TTITLE4=Soul Central feat Kathy Brown - Strings of Life (Stronger on my own)
TTITLE5=Inaya Day - Nasty girl (vanity)
TTITLE6=Mousse T. - Horny (Tiefschwarz Vocal Mix)
TTITLE7=C-Sixty-Four - On a good thing (Full Intention Club Mix)
TTITLE8=Incognito - listen to the music
TTITLE9=Alyoa - It's been too long (Lifelike Remix)
TTITLE10=Ku Affair - Pega Essa Mulher (Club Mix)
TTITLE11=Workidz - Our world (Vocal Mix)
TTITLE12=Casanovy - I need your lovin' (Milk and Sugar Remix)
TTITLE13=Milk and Sugar - Shut up (Pleasure Bar and Erick Decks Mix)
EXTD=Sunshine House 5
EXTT0=
EXTT1=
EXTT2=
EXTT3=
EXTT4=
EXTT5=
EXTT6=
EXTT7=
EXTT8=
EXTT9=
EXTT10=
EXTT11=
EXTT12=
EXTT13=
PLAYORDER=
